<?xml version="1.0" encoding="UTF-8"?>
<svg version="1.1" xmlns="http://www.w3.org/2000/svg" width="500" height="500">
<path d="M0 0 C45.78792744 -0.99907787 92.0386017 6.3895482 132.77294922 28.08251953 C133.36817383 28.39415039 133.96339844 28.70578125 134.57666016 29.02685547 C148.63612891 36.43689338 161.32372541 46.08476354 172.77294922 57.08251953 C173.25795898 57.53643066 173.74296875 57.9903418 174.24267578 58.45800781 C188.40939252 71.74756941 199.6365467 86.96529163 208.77294922 104.08251953 C209.14871094 104.77941895 209.52447266 105.47631836 209.91162109 106.19433594 C230.65948035 145.34378439 238.73526378 193.13879698 239.77294922 237.08251953 C239.81291016 238.29681641 239.85287109 239.51111328 239.89404297 240.76220703 C240.63313527 282.58613626 233.38695159 332.18842943 203.140625 363.65307617 C202.13836497 364.67525393 201.13265003 365.69405877 200.12304688 366.70898438 C198.95851383 367.89373354 197.83594808 369.11946746 196.72216797 370.35205078 C184.91924747 383.16592807 166.64534853 391.78344704 149.77294922 395.08251953 C151.34805633 391.93230531 154.55047359 391.24880345 157.64794922 389.89501953 C184.99615996 377.45989745 203.18343209 356.01660409 213.99121094 328.24365234 C236.1213931 267.06427304 223.16308426 187.74925732 196.78076172 129.62939453 C177.13902186 87.95778649 143.18202235 56.70339041 99.77294922 41.08251953 C78.90142878 34.02987883 57.7045787 29.85423602 35.77294922 28.08251953 C34.71551514 27.99574951 34.71551514 27.99574951 33.63671875 27.90722656 C18.60926039 26.7175969 3.68339294 26.96658808 -11.35205078 27.89501953 C-12.06406647 27.93753845 -12.77608215 27.98005737 -13.50967407 28.02386475 C-24.81603318 28.70938595 -35.98140768 29.86399225 -47.1418457 31.83886719 C-49.84491016 32.15471525 -52.50842339 32.11873892 -55.22705078 32.08251953 C-37.07226084 82.42018841 -16.91481729 134.09250273 19.77294922 174.08251953 C20.27906738 174.6392334 20.78518555 175.19594727 21.30664062 175.76953125 C38.95190239 194.96174438 62.91712892 209.67468374 89.46826172 211.11376953 C123.13318891 210.79542507 149.28350727 195.74114275 174.77294922 175.08251953 C169.58527358 162.75416096 163.34550901 152.35290896 154.77294922 142.08251953 C154.2827832 141.4945459 153.79261719 140.90657227 153.28759766 140.30078125 C116.52664668 96.93761266 51.25464942 75.17570488 -3.22705078 68.08251953 C-3.22705078 67.75251953 -3.22705078 67.42251953 -3.22705078 67.08251953 C46.43980763 64.3061113 107.64707968 83.33709248 146.77294922 114.08251953 C147.66111328 114.75025391 148.54927734 115.41798828 149.46435547 116.10595703 C162.73480022 126.42961152 175.07789753 138.64378532 183.77294922 153.08251953 C184.12679688 153.66662598 184.48064453 154.25073242 184.84521484 154.85253906 C196.05968235 173.49186051 196.05968235 173.49186051 195.55029297 178.09423828 C193.98160861 182.1066018 190.68646812 184.98759285 187.77294922 188.08251953 C187.11037109 188.79794922 186.44779297 189.51337891 185.76513672 190.25048828 C162.11957419 214.89946029 127.52567817 232.62646169 93.24780273 233.42626953 C58.63342174 233.76832471 30.81370643 219.21622765 5.77294922 196.08251953 C4.62246094 195.02097656 4.62246094 195.02097656 3.44873047 193.93798828 C-1.07445436 189.57475891 -5.03518661 184.80741869 -8.95751953 179.90283203 C-10.38921231 178.12368885 -11.84711287 176.36503549 -13.34033203 174.63720703 C-48.9820483 133.06606448 -68.68005314 77.57211942 -85.91455078 26.39501953 C-86.42356934 24.88911255 -86.42356934 24.88911255 -86.94287109 23.3527832 C-87.39871582 21.9757019 -87.39871582 21.9757019 -87.86376953 20.57080078 C-88.12891357 19.77198486 -88.39405762 18.97316895 -88.66723633 18.15014648 C-89.22705078 16.08251953 -89.22705078 16.08251953 -89.22705078 13.08251953 C-67.36315457 5.84843927 -44.07029432 3.11530983 -21.22705078 1.08251953 C-20.42074219 1.01049316 -19.61443359 0.9384668 -18.78369141 0.86425781 C-12.52577617 0.33998358 -6.27608555 0.16048698 0 0 Z " fill="#C80203" transform="translate(104.22705078125,75.91748046875)"/>
<path d="M0 0 C4.52806497 15.14697838 7.98864729 30.48384183 11 46 C11.2160791 47.08974121 11.4321582 48.17948242 11.65478516 49.30224609 C14.64622136 64.91996663 15.38604757 80.26794095 15.4375 96.125 C15.44689606 97.48179367 15.44689606 97.48179367 15.45648193 98.86599731 C15.52407801 114.27352536 14.46885676 129.67240353 9.25 144.3125 C8.99395996 145.05048828 8.73791992 145.78847656 8.47412109 146.54882812 C1.31583267 166.44878366 -11.91633869 182.94757402 -31.078125 192.30859375 C-53.08191118 202.27871452 -81.13602343 201.73553349 -103.5703125 193.36328125 C-104.70210938 192.91339844 -105.83390625 192.46351563 -107 192 C-110.98547513 160.61438338 -102.79659871 132.84169643 -83.63208008 107.77832031 C-70.15177633 90.57444353 -53.32863387 73.57604495 -34 63 C-33.34 63.33 -32.68 63.66 -32 64 C-32.76183594 64.73863281 -33.52367187 65.47726563 -34.30859375 66.23828125 C-40.19760486 72.00274844 -45.74450623 77.84420142 -50.8671875 84.31640625 C-52.25383274 86.06114119 -53.67452326 87.77953146 -55.1328125 89.46484375 C-73.36088257 110.66559191 -88.38011572 138.42538155 -88.0625 166.9375 C-88.05798828 167.71673828 -88.05347656 168.49597656 -88.04882812 169.29882812 C-88.03716908 171.19925268 -88.01923877 173.09963706 -88 175 C-74.31284179 179.56238607 -55.13134981 175.89817265 -42.5625 169.75 C-28.5564154 162.15614986 -20.93185934 150.96227416 -16.03125 135.796875 C-7.64838304 104.93268303 -11.84450682 71.39597782 -17.44921875 40.4140625 C-18 37 -18 37 -18 33 C-43.18980751 43.34708807 -65.97940526 55.63409486 -85.61914062 74.67041016 C-86.79570007 75.80328546 -87.99699623 76.91037777 -89.203125 78.01171875 C-107.98994627 95.61481754 -119.49614682 121.53785373 -121.20727539 147.09594727 C-121.30268392 150.25439321 -121.32804442 153.40267754 -121.3125 156.5625 C-121.31048584 157.68567627 -121.30847168 158.80885254 -121.30639648 159.96606445 C-121.1886756 169.87647078 -119.8643718 179.29174269 -118 189 C-117.63862457 191.330514 -117.31552445 193.66266839 -117 196 C-120.64923113 192.69953137 -121.79664581 188.98123026 -123.4375 184.4375 C-123.74316895 183.59775635 -124.04883789 182.7580127 -124.36376953 181.89282227 C-128.41200774 170.41852334 -131.53274675 158.20699118 -132 146 C-132.0515625 144.99582031 -132.103125 143.99164063 -132.15625 142.95703125 C-132.98301539 113.02123433 -121.63919244 84.36080269 -102 62 C-101.49645996 61.42491699 -100.99291992 60.84983398 -100.47412109 60.25732422 C-94.7149362 53.73916296 -88.83903335 47.40283635 -82 42 C-81.48050781 41.58459961 -80.96101563 41.16919922 -80.42578125 40.74121094 C-60.40113575 24.83863651 -26.62997045 0 0 0 Z " fill="#55A836" transform="translate(470,29)"/>
<path d="M0 0 C0.33 0 0.66 0 1 0 C1.0269501 2.93756119 1.04681474 5.87487555 1.0625 8.8125 C1.07087891 9.64587891 1.07925781 10.47925781 1.08789062 11.33789062 C1.09111328 12.14033203 1.09433594 12.94277344 1.09765625 13.76953125 C1.10289307 14.50792236 1.10812988 15.24631348 1.11352539 16.00708008 C1 18 1 18 0 21 C-0.11880354 22.8096818 -0.1751965 24.62396447 -0.1875 26.4375 C-0.20167969 27.38496094 -0.21585937 28.33242188 -0.23046875 29.30859375 C0.00671646 32.07843458 0.4950457 33.68184232 2 36 C2.66 36.33 3.32 36.66 4 37 C4.33 36.01 4.66 35.02 5 34 C5.66 34 6.32 34 7 34 C3.85523214 53.2180258 -6.9392717 72.79466953 -20 87 C-20.7113208 87.78286377 -20.7113208 87.78286377 -21.43701172 88.58154297 C-35.55975369 103.96806498 -53.31923126 114.95627427 -74 119 C-72.42489289 115.84978577 -69.22247563 115.16628391 -66.125 113.8125 C-38.77678925 101.37737792 -20.58951713 79.93408455 -9.78173828 52.16113281 C-3.77751692 35.56232972 -1.01679657 17.56603727 0 0 Z " fill="#BF0608" transform="translate(328,352)"/>
<path d="M0 0 C32.22344677 -1.80131069 91.63265652 5.95618548 117 28 C113.61608307 29.06351675 112.4195366 29.21442982 109.1875 27.5625 C108.1046875 26.7890625 108.1046875 26.7890625 107 26 C106.34 27.65 105.68 29.3 105 31 C106.485 31.495 106.485 31.495 108 32 C108 32.66 108 33.32 108 34 C108.99 34 109.98 34 111 34 C111.33 33.01 111.66 32.02 112 31 C112.99 31.99 112.99 31.99 114 33 C113.34 34.32 112.68 35.64 112 37 C108.82567686 35.81690196 105.79530657 34.43289254 102.76171875 32.93359375 C70.48900842 17.00333053 35.65160356 6.07708322 0 1 C0 0.67 0 0.34 0 0 Z " fill="#BD0807" transform="translate(101,143)"/>
<path d="M0 0 C0.495 1.98 0.495 1.98 1 4 C1.66 4 2.32 4 3 4 C3 4.66 3 5.32 3 6 C-21.15198226 20.28172407 -21.15198226 20.28172407 -34 22 C-32.42506345 18.85012689 -29.22263742 18.16546081 -26.125 16.8125 C-16.43928685 12.43202092 -7.87951049 7.17910956 0 0 Z " fill="#B80B0C" transform="translate(288,449)"/>
<path d="M0 0 C16.85974106 -0.94247 33.42846199 2.21745409 50 5 C50 5.33 50 5.66 50 6 C49.25234375 6.06058594 48.5046875 6.12117187 47.734375 6.18359375 C46.25710937 6.30927734 46.25710937 6.30927734 44.75 6.4375 C43.28820312 6.55931641 43.28820312 6.55931641 41.796875 6.68359375 C39.13390047 6.8870406 39.13390047 6.8870406 37.21704102 7.59350586 C34.14369091 8.15700414 31.77208664 7.50753627 28.73046875 6.8203125 C27.51166016 6.55089844 26.29285156 6.28148437 25.03710938 6.00390625 C23.76673828 5.71386719 22.49636719 5.42382812 21.1875 5.125 C18.68146701 4.5629711 16.17496898 4.00301102 13.66796875 3.4453125 C12.55703857 3.19281738 11.4461084 2.94032227 10.30151367 2.68017578 C6.87977522 1.97523137 3.4624361 1.46004971 0 1 C0 0.67 0 0.34 0 0 Z " fill="#B50C0C" transform="translate(101,143)"/>
<path d="M0 0 C0.66 0.33 1.32 0.66 2 1 C1.98428955 1.77899658 1.9685791 2.55799316 1.95239258 3.3605957 C1.68064284 18.93059457 1.980254 33.69786743 5 49 C5.36366824 51.33035506 5.6856594 53.66228256 6 56 C3.7092265 53.9222009 2.46785572 52.20699007 1.39453125 49.3125 C1.13349609 48.61382812 0.87246094 47.91515625 0.60351562 47.1953125 C0.34248047 46.47085938 0.08144531 45.74640625 -0.1875 45 C-0.46013672 44.27554688 -0.73277344 43.55109375 -1.01367188 42.8046875 C-2.13810391 39.74983957 -3 37.2801863 -3 34 C-2.34 34 -1.68 34 -1 34 C-1 33.16750732 -1 32.33501465 -1 31.47729492 C-1 3 -1 3 0 0 Z " fill="#59A13E" transform="translate(347,169)"/>
<path d="M0 0 C1.32 0.66 2.64 1.32 4 2 C4 2.99 4 3.98 4 5 C3.01 5.495 3.01 5.495 2 6 C1.87625 6.804375 1.7525 7.60875 1.625 8.4375 C1.41875 9.283125 1.2125 10.12875 1 11 C-0.32467746 11.6837045 -1.65863633 12.34964186 -3 13 C-4.28254644 15.53770003 -4.28254644 15.53770003 -5 18 C-6.65 17.01 -8.3 16.02 -10 15 C-9.8125 12.75 -9.8125 12.75 -9 10 C-7.36395804 8.62926214 -5.69321939 7.29944744 -4 6 C-2.60644236 4.04148656 -1.25717453 2.04872887 0 0 Z M-11 17 C-10.01 17 -9.02 17 -8 17 C-7.375 18.875 -7.375 18.875 -7 21 C-7.66 21.66 -8.32 22.32 -9 23 C-9.99 22.01 -10.98 21.02 -12 20 C-11.67 19.01 -11.34 18.02 -11 17 Z " fill="#53A933" transform="translate(407,115)"/>
<path d="M0 0 C4.75 0.75 4.75 0.75 7 3 C8.32 3 9.64 3 11 3 C11.268125 3.639375 11.53625 4.27875 11.8125 4.9375 C12.88667752 7.33131686 12.88667752 7.33131686 16 8 C14.02 8.99 14.02 8.99 12 10 C12 10.66 12 11.32 12 12 C10.02 12 8.04 12 6 12 C6.33 10.35 6.66 8.7 7 7 C6.34 7.66 5.68 8.32 5 9 C4.01 9 3.02 9 2 9 C2 8.34 2 7.68 2 7 C0.68 6.67 -0.64 6.34 -2 6 C-1.34 4.02 -0.68 2.04 0 0 Z " fill="#CD0102" transform="translate(207,168)"/>
<path d="M0 0 C1.32 0 2.64 0 4 0 C4.33 0.66 4.66 1.32 5 2 C5.804375 1.6596875 5.804375 1.6596875 6.625 1.3125 C10.06081901 0.86041855 12.05766694 2.32821985 15 4 C15 4.66 15 5.32 15 6 C16.32 6.33 17.64 6.66 19 7 C19 8.65 19 10.3 19 12 C15.6875 11.875 15.6875 11.875 12 11 C10.1875 8 10.1875 8 9 5 C8.34 4.67 7.68 4.34 7 4 C6.67 4.99 6.34 5.98 6 7 C3.03 6.505 3.03 6.505 0 6 C0 4.02 0 2.04 0 0 Z " fill="#CA0102" transform="translate(182,159)"/>
<path d="M0 0 C5.21979128 -0.1799928 9.07262981 0.02905192 14 2 C13.34 3.32 12.68 4.64 12 6 C4 6.30769231 4 6.30769231 1 4 C0.25 1.875 0.25 1.875 0 0 Z " fill="#C10506" transform="translate(152,151)"/>
<path d="M0 0 C0.33 0 0.66 0 1 0 C0.7777527 6.88966644 -0.72033855 12.87442953 -2.875 19.375 C-3.13168457 20.15987793 -3.38836914 20.94475586 -3.65283203 21.75341797 C-4.98140755 25.63559746 -6.22034694 28.88745435 -9 32 C-9.35740658 26.99630792 -8.31740348 24.38651373 -6 20 C-3.33294231 13.4396512 -1.36614404 6.94456551 0 0 Z " fill="#5C9D43" transform="translate(482,154)"/>
<path d="M0 0 C0.69969682 2.24623699 1.38435043 4.49716414 2.0625 6.75 C2.44535156 8.00296875 2.82820313 9.2559375 3.22265625 10.546875 C3.92656828 13.6738008 4.16653785 15.09466046 3 18 C2.72285156 17.15695313 2.44570313 16.31390625 2.16015625 15.4453125 C1.79792969 14.34960938 1.43570312 13.25390625 1.0625 12.125 C0.70285156 11.03445312 0.34320313 9.94390625 -0.02734375 8.8203125 C-0.89914074 6.09241318 -0.89914074 6.09241318 -2 4 C-4.33075929 4.95865509 -4.33075929 4.95865509 -6 8 C-6 6.68 -6 5.36 -6 4 C-7.98 4 -9.96 4 -12 4 C-8.14070855 1.42713903 -4.66785662 0 0 0 Z " fill="#5FA042" transform="translate(470,29)"/>
<path d="M0 0 C1.933659 3.86731799 2.28138031 5.48324962 2.4140625 9.640625 C2.45273437 10.71054687 2.49140625 11.78046875 2.53125 12.8828125 C2.57765625 14.54957031 2.57765625 14.54957031 2.625 16.25 C2.66367187 17.37664062 2.70234375 18.50328125 2.7421875 19.6640625 C2.83637336 22.44254548 2.92199586 25.22102334 3 28 C2.01 28.33 1.02 28.66 0 29 C0 19.43 0 9.86 0 0 Z " fill="#AC0D0C" transform="translate(329,323)"/>
<path d="M0 0 C1.65 0 3.3 0 5 0 C4.625 1.9375 4.625 1.9375 4 4 C3.01 4.495 3.01 4.495 2 5 C1.67 5.99 1.34 6.98 1 8 C0.01 8 -0.98 8 -2 8 C-1.67 9.65 -1.34 11.3 -1 13 C-1.99 12.67 -2.98 12.34 -4 12 C-3.67 9.03 -3.34 6.06 -3 3 C-2.34 3 -1.68 3 -1 3 C-0.67 2.01 -0.34 1.02 0 0 Z " fill="#CB0102" transform="translate(314,419)"/>
<path d="M0 0 C0.33 0 0.66 0 1 0 C1.47981648 3.0207314 1.95887232 6.04158021 2.4375 9.0625 C2.57220703 9.91005859 2.70691406 10.75761719 2.84570312 11.63085938 C3.60314397 16.41566861 4.32948293 21.20222252 5 26 C1.67016949 23.30442292 0.45548306 19.95059687 -1 16 C-1 14.68 -1 13.36 -1 12 C-0.34 12 0.32 12 1 12 C0.649375 10.948125 0.29875 9.89625 -0.0625 8.8125 C-0.94970527 5.2045319 -1.05262882 3.47367511 0 0 Z " fill="#5D9546" transform="translate(348,199)"/>
<path d="M0 0 C0.33 0 0.66 0 1 0 C2.10941367 5.32867983 2.11548069 10.46281855 2.0625 15.875 C2.05798828 16.75414063 2.05347656 17.63328125 2.04882812 18.5390625 C2.03712337 20.69273803 2.01919069 22.84637817 2 25 C0.5 23.6875 0.5 23.6875 -1 22 C-1 21.01 -1 20.02 -1 19 C-1.66 18.34 -2.32 17.68 -3 17 C-2.34 17 -1.68 17 -1 17 C-0.67 11.39 -0.34 5.78 0 0 Z " fill="#59A041" transform="translate(483,97)"/>
<path d="M0 0 C3.93673644 1.31224548 6.22719294 2.91910327 9 6 C8.34 6 7.68 6 7 6 C6.67 6.66 6.34 7.32 6 8 C6 6.68 6 5.36 6 4 C5.02417969 4.44472656 4.04835938 4.88945313 3.04296875 5.34765625 C1.75803843 5.91977851 0.4728696 6.49136533 -0.8125 7.0625 C-1.77639648 7.50432617 -1.77639648 7.50432617 -2.75976562 7.95507812 C-7.66015625 10.11328125 -7.66015625 10.11328125 -11 9 C-10.34 8.34 -9.68 7.68 -9 7 C-7.68 7 -6.36 7 -5 7 C-5 6.34 -5 5.68 -5 5 C-3.68 4.67 -2.36 4.34 -1 4 C-0.67 2.68 -0.34 1.36 0 0 Z " fill="#5AA33F" transform="translate(446,58)"/>
<path d="M0 0 C1.41706285 4.46615712 0.04123403 7.82079622 -1.375 12.125 C-3.36661928 18.47256643 -4.68175821 24.31692232 -5 31 C-5.66 31 -6.32 31 -7 31 C-6.78111126 20.67243118 -4.66694205 9.33388411 0 0 Z " fill="#5A9C40" transform="translate(346,127)"/>
<path d="M0 0 C3.3 0 6.6 0 10 0 C10 0.66 10 1.32 10 2 C12.97 2 15.94 2 19 2 C19 2.66 19 3.32 19 4 C20.1446875 3.9071875 20.1446875 3.9071875 21.3125 3.8125 C24.48780806 4.03403312 24.95735659 4.71775032 27 7 C17.92941442 5.30622972 8.97200413 3.14412164 0 1 C0 0.67 0 0.34 0 0 Z " fill="#B00D0F" transform="translate(171,107)"/>
<path d="M0 0 C16.70842825 -0.18451025 16.70842825 -0.18451025 25 1 C23.7421875 2.51171875 23.7421875 2.51171875 22 4 C18.8828713 3.84917119 16.06376829 3.5113503 13 3 C11.85144531 2.82726562 10.70289062 2.65453125 9.51953125 2.4765625 C6.34391434 1.99866159 3.17142144 1.50487853 0 1 C0 0.67 0 0.34 0 0 Z " fill="#AD1C1D" transform="translate(101,143)"/>
<path d="M0 0 C0 0.66 0 1.32 0 2 C-1.22976562 2.29003906 -1.22976562 2.29003906 -2.484375 2.5859375 C-4.10085937 2.97652344 -4.10085937 2.97652344 -5.75 3.375 C-7.35101562 3.75785156 -7.35101562 3.75785156 -8.984375 4.1484375 C-11.59225605 4.88485987 -13.73322574 5.52765597 -16 7 C-16.33 7.99 -16.66 8.98 -17 10 C-17.33 8.02 -17.66 6.04 -18 4 C-15.75194998 3.32678716 -13.50147776 2.66165877 -11.25 2 C-9.99703125 1.62875 -8.7440625 1.2575 -7.453125 0.875 C-4 0 -4 0 0 0 Z " fill="#AC0D0E" transform="translate(33,85)"/>
<path d="M0 0 C0.66 0.33 1.32 0.66 2 1 C1.25 6.75 1.25 6.75 -1 9 C-2.10841076 12.08709716 -3.04491022 15.21003709 -4 18.34765625 C-5 21 -5 21 -7 22 C-5.26751883 14.36133302 -3.13135691 7.18463616 0 0 Z " fill="#5A9D41" transform="translate(371,162)"/>
<path d="M0 0 C2 1 2 1 3 3 C0.96123051 3.81974263 -1.08116075 4.6304807 -3.125 5.4375 C-4.26195312 5.88996094 -5.39890625 6.34242188 -6.5703125 6.80859375 C-9.74206741 7.91039927 -12.67942748 8.56095774 -16 9 C-14.34761036 5.69522072 -10.79218424 4.80060013 -7.5625 3.3125 C-6.86833984 2.97927734 -6.17417969 2.64605469 -5.45898438 2.30273438 C-3.66862934 1.46908406 -1.83610869 0.72735747 0 0 Z " fill="#AA1F20" transform="translate(270,462)"/>
<path d="M0 0 C4.08963819 2.28538605 7.46362104 4.95706926 11 8 C8.50907189 9.24546405 7.58919267 8.7767578 5 8 C5 7.34 5 6.68 5 6 C3.02 6.33 1.04 6.66 -1 7 C-1.33 6.34 -1.66 5.68 -2 5 C-1.34 5 -0.68 5 0 5 C0 3.35 0 1.7 0 0 Z " fill="#C5040A" transform="translate(251,191)"/>
<path d="M0 0 C0.33 0 0.66 0 1 0 C0.96519531 0.93972656 0.96519531 0.93972656 0.9296875 1.8984375 C0.91164063 2.71570313 0.89359375 3.53296875 0.875 4.375 C0.85179687 5.18710937 0.82859375 5.99921875 0.8046875 6.8359375 C0.78629949 9.21342243 0.78629949 9.21342243 3 11 C1.68 12.32 0.36 13.64 -1 15 C-1.33 13.35 -1.66 11.7 -2 10 C-2.99 10 -3.98 10 -5 10 C-3.66654496 6.40992874 -2.1056769 3.20429093 0 0 Z " fill="#B60A0A" transform="translate(310,422)"/>
<path d="M0 0 C4.75683988 1.47029596 9.35976095 1.52643532 14.3125 1.6875 C15.77429688 1.74550781 15.77429688 1.74550781 17.265625 1.8046875 C19.6560672 1.89843033 22.04651244 1.9841383 24.4375 2.0625 C24.4375 2.3925 24.4375 2.7225 24.4375 3.0625 C0.64872564 3.47527905 0.64872564 3.47527905 -9.5625 1.0625 C-9.5625 0.7325 -9.5625 0.4025 -9.5625 0.0625 C-3.26939655 -1.19612069 -3.26939655 -1.19612069 0 0 Z " fill="#5B9D43" transform="translate(388.5625,224.9375)"/>
<path d="M0 0 C1.89453748 2.84180622 3.00192814 5.31564815 4.1875 8.5 C4.55230469 9.4590625 4.91710937 10.418125 5.29296875 11.40625 C6 14 6 14 5 17 C5 16.34 5 15.68 5 15 C2.525 14.01 2.525 14.01 0 13 C0 8.71 0 4.42 0 0 Z " fill="#B80909" transform="translate(321,199)"/>
<path d="M0 0 C0.66 0.33 1.32 0.66 2 1 C-0.97 3.97 -3.94 6.94 -7 10 C-7.33 9.34 -7.66 8.68 -8 8 C-9.32 8.99 -10.64 9.98 -12 11 C-12.66 10.67 -13.32 10.34 -14 10 C-3.65028717 1.76983621 -3.65028717 1.76983621 0 0 Z " fill="#609A43" transform="translate(436,92)"/>
<path d="M0 0 C-4.95878719 3.30585813 -7.67964951 4.24640701 -13.75 4.125 C-14.92046875 4.10695313 -16.0909375 4.08890625 -17.296875 4.0703125 C-18.63492188 4.03550781 -18.63492188 4.03550781 -20 4 C-16.89234404 2.25971266 -14.0636951 1.48685934 -10.5625 0.875 C-9.17224609 0.62363281 -9.17224609 0.62363281 -7.75390625 0.3671875 C-5.12946175 0.01726157 -2.64357647 -0.06716891 0 0 Z " fill="#AD0D0C" transform="translate(54,81)"/>
<path d="M0 0 C0.99 0 1.98 0 3 0 C3 0.66 3 1.32 3 2 C3.66 2 4.32 2 5 2 C4.835 3.216875 4.67 4.43375 4.5 5.6875 C4.10545459 8.81607836 3.90130275 11.84168804 4 15 C1.32820751 10.22894198 0 5.46088946 0 0 Z " fill="#B60A0A" transform="translate(313,234)"/>
<path d="M0 0 C0 0.66 0 1.32 0 2 C-0.804375 2.12375 -1.60875 2.2475 -2.4375 2.375 C-3.7059375 2.684375 -3.7059375 2.684375 -5 3 C-5.33 3.66 -5.66 4.32 -6 5 C-8.0625 5.625 -8.0625 5.625 -10 6 C-10 6.66 -10 7.32 -10 8 C-14.455 9.485 -14.455 9.485 -19 11 C-15.9047795 7.9047795 -12.70730951 5.93325754 -8.9375 3.8125 C-8.30005859 3.44447266 -7.66261719 3.07644531 -7.00585938 2.69726562 C-2.25687036 0 -2.25687036 0 0 0 Z " fill="#5F9E47" transform="translate(428,46)"/>
<path d="M0 0 C2.47649442 2.90718911 4 5.11368618 4 9 C2.53621132 11.28480668 0.88910043 13.01874833 -1 15 C-1.66 14.01 -2.32 13.02 -3 12 C-2.01 11.34 -1.02 10.68 0 10 C1.47622624 6.55547211 0.73320172 3.58454175 0 0 Z " fill="#B20B0D" transform="translate(296,246)"/>
<path d="M0 0 C0 4.58228538 -2.91611967 6.8183381 -6 10 C-8.375 11.9375 -8.375 11.9375 -10 13 C-10.66 12.67 -11.32 12.34 -12 12 C-8.04 8.04 -4.08 4.08 0 0 Z " fill="#5E9A45" transform="translate(406,115)"/>
<path d="M0 0 C0.33 0.66 0.66 1.32 1 2 C-0.98 4.97 -2.96 7.94 -5 11 C-7 8 -7 8 -7 6 C-6.01 6 -5.02 6 -4 6 C-3.896875 5.38125 -3.79375 4.7625 -3.6875 4.125 C-3 2 -3 2 0 0 Z " fill="#B00B0D" transform="translate(319,421)"/>
<path d="M0 0 C0.99 0 1.98 0 3 0 C3 0.66 3 1.32 3 2 C1.23141309 2.67260351 -0.53996016 3.33788395 -2.3125 4 C-3.29863281 4.37125 -4.28476563 4.7425 -5.30078125 5.125 C-8 6 -8 6 -11 6 C-11 5.34 -11 4.68 -11 4 C-7.91111478 1.94074319 -7.29064073 1.7609626 -3.8125 1.875 C-1.9253125 1.936875 -1.9253125 1.936875 0 2 C0 1.34 0 0.68 0 0 Z " fill="#AB0D10" transform="translate(235,299)"/>
<path d="M0 0 C0.66 0.33 1.32 0.66 2 1 C2 5.29 2 9.58 2 14 C1.34 14 0.68 14 0 14 C-1.10424872 9.58300512 -1.15088074 5.52642225 -1 1 C-0.67 0.67 -0.34 0.34 0 0 Z " fill="#60A043" transform="translate(379,190)"/>
<path d="M0 0 C2.97 0.495 2.97 0.495 6 1 C6 1.66 6 2.32 6 3 C6.598125 3.061875 7.19625 3.12375 7.8125 3.1875 C10.87143458 4.3236757 11.55041099 6.17330142 13 9 C9.91220974 7.53400783 7.09532795 5.82973607 4.25 3.9375 C3.45078125 3.41027344 2.6515625 2.88304687 1.828125 2.33984375 C1.22484375 1.89769531 0.6215625 1.45554688 0 1 C0 0.67 0 0.34 0 0 Z " fill="#B00B0C" transform="translate(223,186)"/>
<path d="M0 0 C0 0.66 0 1.32 0 2 C0.969375 2.28875 1.93875 2.5775 2.9375 2.875 C6 4 6 4 7 6 C1.93001981 5.34580901 -2.41990777 3.1453591 -7 1 C-3.375 -1.125 -3.375 -1.125 0 0 Z " fill="#AE0D0F" transform="translate(153,297)"/>
<path d="M0 0 C0 0.66 0 1.32 0 2 C-0.9590625 2.1546875 -0.9590625 2.1546875 -1.9375 2.3125 C-2.618125 2.539375 -3.29875 2.76625 -4 3 C-4.33 3.99 -4.66 4.98 -5 6 C-7.64 6.33 -10.28 6.66 -13 7 C-4.25 0 -4.25 0 0 0 Z " fill="#B10A10" transform="translate(255,270)"/>
<path d="M0 0 C3.05001831 3.66002197 7 9.07851471 7 14 C6.34 14 5.68 14 5 14 C3 11 3 11 3 7 C2.01 6.67 1.02 6.34 0 6 C0 4.02 0 2.04 0 0 Z " fill="#AC0F12" transform="translate(76,177)"/>
<path d="M0 0 C2.31 0.33 4.62 0.66 7 1 C7 1.66 7 2.32 7 3 C7.99 3 8.98 3 10 3 C10.33 2.01 10.66 1.02 11 0 C11.66 0.66 12.32 1.32 13 2 C12.34 3.32 11.68 4.64 11 6 C7.2089881 4.55049545 3.6125362 2.84827434 0 1 C0 0.67 0 0.34 0 0 Z " fill="#B5090B" transform="translate(202,174)"/>
<path d="M0 0 C1.32 0.33 2.64 0.66 4 1 C4.33 2.32 4.66 3.64 5 5 C5.99 5 6.98 5 8 5 C10.125 9.625 10.125 9.625 9 13 C7.68568828 11.20966193 6.3736047 9.41768797 5.0625 7.625 C4.33160156 6.62726563 3.60070312 5.62953125 2.84765625 4.6015625 C1 2 1 2 0 0 Z " fill="#B00B0C" transform="translate(275,164)"/>
<path d="M0 0 C4.83628305 0.99043705 9.47618873 1.95698846 14 4 C14 4.33 14 4.66 14 5 C8.76190476 6.04761905 8.76190476 6.04761905 6 6 C3.625 4.1875 3.625 4.1875 2 2 C1.34 1.34 0.68 0.68 0 0 Z " fill="#B50A09" transform="translate(191,160)"/>
<path d="M0 0 C2.34914492 2.34914492 2.73140357 3.95679446 3.625 7.125 C3.88539062 8.03507813 4.14578125 8.94515625 4.4140625 9.8828125 C4.70410156 10.93082031 4.70410156 10.93082031 5 12 C3.35 11.67 1.7 11.34 0 11 C0 7.37 0 3.74 0 0 Z " fill="#B80A0B" transform="translate(59,138)"/>
<path d="M0 0 C4.77609498 1.64178265 8.79382904 4.26546702 13 7 C11.68 7.33 10.36 7.66 9 8 C9 7.34 9 6.68 9 6 C8.01 6.33 7.02 6.66 6 7 C5.566875 6.360625 5.13375 5.72125 4.6875 5.0625 C3.08760823 2.73253997 3.08760823 2.73253997 0 2 C0 1.34 0 0.68 0 0 Z " fill="#AC0C11" transform="translate(244,109)"/>
<path d="M0 0 C0.66 0.33 1.32 0.66 2 1 C0.6875 3.5 0.6875 3.5 -1 6 C-1.99 6 -2.98 6 -4 6 C-4 6.66 -4 7.32 -4 8 C-3.34 8.33 -2.68 8.66 -2 9 C-3.98 9.99 -3.98 9.99 -6 11 C-6.71484375 9.234375 -6.71484375 9.234375 -7 7 C-5.56640625 5.078125 -5.56640625 5.078125 -3.5625 3.25 C-2.90378906 2.63640625 -2.24507813 2.0228125 -1.56640625 1.390625 C-1.04949219 0.93171875 -0.53257812 0.4728125 0 0 Z " fill="#58A23E" transform="translate(389,70)"/>
<path d="M0 0 C1.98 0.66 3.96 1.32 6 2 C3.63404067 4.61500768 1.13950774 6.38999603 -2 8 C-2.66 7.67 -3.32 7.34 -4 7 C-3.525625 6.5875 -3.05125 6.175 -2.5625 5.75 C-0.83733482 3.817815 -0.43415125 2.51807725 0 0 Z " fill="#5CA243" transform="translate(414,74)"/>
<path d="M0 0 C0.66 0.33 1.32 0.66 2 1 C1.67 2.32 1.34 3.64 1 5 C-4.75 6.125 -4.75 6.125 -7 5 C-4.69 3.35 -2.38 1.7 0 0 Z " fill="#B60909" transform="translate(262,264)"/>
<path d="M0 0 C0.99 0.66 1.98 1.32 3 2 C-0.465 4.97 -0.465 4.97 -4 8 C-4.33 6.35 -4.66 4.7 -5 3 C-4.01 2.67 -3.02 2.34 -2 2 C-1.34 2.33 -0.68 2.66 0 3 C0 2.01 0 1.02 0 0 Z " fill="#B90709" transform="translate(291,260)"/>
<path d="M0 0 C1.98 1.65 3.96 3.3 6 5 C5.01 5.33 4.02 5.66 3 6 C2.67 6.66 2.34 7.32 2 8 C1.01 7.67 0.02 7.34 -1 7 C-0.67 4.69 -0.34 2.38 0 0 Z " fill="#BB0707" transform="translate(130,257)"/>
<path d="M0 0 C0.33 0.99 0.66 1.98 1 3 C-0.36328125 5.48046875 -0.36328125 5.48046875 -2.3125 8.1875 C-2.94800781 9.08855469 -3.58351563 9.98960937 -4.23828125 10.91796875 C-5.11033203 11.94857422 -5.11033203 11.94857422 -6 13 C-6.66 13 -7.32 13 -8 13 C-6.40956621 7.91061189 -3.2553049 4.12543357 0 0 Z " fill="#5B9B3F" transform="translate(389,133)"/>
<path d="M0 0 C2.34914492 2.34914492 2.73140357 3.95679446 3.625 7.125 C3.88539062 8.03507813 4.14578125 8.94515625 4.4140625 9.8828125 C4.70410156 10.93082031 4.70410156 10.93082031 5 12 C4.34 11.67 3.68 11.34 3 11 C3 10.01 3 9.02 3 8 C2.34 8 1.68 8 1 8 C0.67 8.66 0.34 9.32 0 10 C0 6.7 0 3.4 0 0 Z " fill="#B60A0C" transform="translate(64,150)"/>
<path d="M0 0 C8.57142857 0.85714286 8.57142857 0.85714286 12 3 C11.67 3.66 11.34 4.32 11 5 C9.35153231 4.55123384 7.70626545 4.09069512 6.0625 3.625 C5.14597656 3.36976563 4.22945312 3.11453125 3.28515625 2.8515625 C1 2 1 2 0 0 Z " fill="#B40B0D" transform="translate(160,151)"/>
<path d="M0 0 C0.33 1.32 0.66 2.64 1 4 C1.66 4 2.32 4 3 4 C3 4.66 3 5.32 3 6 C1.35 6.66 -0.3 7.32 -2 8 C-1.34 6.68 -0.68 5.36 0 4 C-1.32 4.33 -2.64 4.66 -4 5 C-2.68 3.35 -1.36 1.7 0 0 Z " fill="#AB0F11" transform="translate(288,449)"/>
<path d="M0 0 C1.4540625 0.0309375 1.4540625 0.0309375 2.9375 0.0625 C2.2775 1.3825 1.6175 2.7025 0.9375 4.0625 C-0.3825 4.0625 -1.7025 4.0625 -3.0625 4.0625 C-3.3925 3.0725 -3.7225 2.0825 -4.0625 1.0625 C-3.0625 0.0625 -3.0625 0.0625 0 0 Z " fill="#CC0102" transform="translate(163.0625,152.9375)"/>
<path d="M0 0 C0.99 0.66 1.98 1.32 3 2 C3.99 1.67 4.98 1.34 6 1 C6.66 2.98 7.32 4.96 8 7 C4.00499382 5.6302836 1.19990508 3.74277578 -2 1 C-1.34 0.67 -0.68 0.34 0 0 Z " fill="#B8080A" transform="translate(236,129)"/>
<path d="M0 0 C1.67110042 2.96178773 2.32682752 5.37071192 2.625 8.75 C2.69976562 9.54921875 2.77453125 10.3484375 2.8515625 11.171875 C2.90054687 11.77515625 2.94953125 12.3784375 3 13 C0.75393573 11.22555028 0.04918998 10.41647515 -0.29296875 7.51953125 C-0.25816406 6.62621094 -0.22335937 5.73289062 -0.1875 4.8125 C-0.16042969 3.91144531 -0.13335937 3.01039062 -0.10546875 2.08203125 C-0.07066406 1.39496094 -0.03585937 0.70789062 0 0 Z " fill="#5F9C45" transform="translate(474,47)"/>
<path d="M0 0 C1.65 1.65 3.3 3.3 5 5 C4.67 5.66 4.34 6.32 4 7 C3.34 6.67 2.68 6.34 2 6 C-0.09821215 6.39938767 -0.09821215 6.39938767 -2 7 C-1.67 6.01 -1.34 5.02 -1 4 C-0.34 4 0.32 4 1 4 C0.67 2.68 0.34 1.36 0 0 Z " fill="#B50B09" transform="translate(282,222)"/>
<path d="M0 0 C0.99 0.33 1.98 0.66 3 1 C3.59732819 3.76264289 4 6.16032769 4 9 C2.02 6.69 0.04 4.38 -2 2 C-1.34 1.34 -0.68 0.68 0 0 Z " fill="#B80A0B" transform="translate(256,210)"/>
<path d="M0 0 C1.5 1.375 1.5 1.375 3 3 C3 3.66 3 4.32 3 5 C-0.46153846 8 -0.46153846 8 -3 8 C-2.37240135 5.07120629 -1.41377341 2.63904371 0 0 Z " fill="#B9090A" transform="translate(91,206)"/>
<path d="M0 0 C1.98 0.99 1.98 0.99 4 2 C3.67 4.31 3.34 6.62 3 9 C0.87491756 5.81237635 0.4979837 3.73487777 0 0 Z " fill="#B50A0A" transform="translate(23,113)"/>
<path d="M0 0 C0.33 1.32 0.66 2.64 1 4 C0.34 4 -0.32 4 -1 4 C-1 5.65 -1 7.3 -1 9 C-2.98 9.99 -2.98 9.99 -5 11 C-3.77472971 6.94718288 -2.30119506 3.55639236 0 0 Z " fill="#5B9F40" transform="translate(356,107)"/>
<path d="M0 0 C3.82097239 0.53069061 6.06171403 1.49701566 9 4 C7.68 4 6.36 4 5 4 C4.67 4.99 4.34 5.98 4 7 C3.566875 5.824375 3.566875 5.824375 3.125 4.625 C2.15087746 1.90328368 2.15087746 1.90328368 0 0 Z " fill="#B30B0D" transform="translate(216,95)"/>
<path d="M0 0 C1.65 0 3.3 0 5 0 C1.4912812 3.09592835 -1.49197399 4.74194623 -6 6 C-6 5.01 -6 4.02 -6 3 C-4.35 3 -2.7 3 -1 3 C-0.67 2.01 -0.34 1.02 0 0 Z " fill="#5DA042" transform="translate(426,70)"/>
<path d="M0 0 C5.75 1.75 5.75 1.75 8 4 C5.125 4.625 5.125 4.625 2 5 C1.34 4.34 0.68 3.68 0 3 C0 2.01 0 1.02 0 0 Z " fill="#AF0A0E" transform="translate(218,171)"/>
<path d="M0 0 C0.33 0 0.66 0 1 0 C1.10884119 1.41493551 1.18597617 2.83232943 1.25 4.25 C1.29640625 5.03890625 1.3428125 5.8278125 1.390625 6.640625 C1 9 1 9 -3 13 C-2.01 8.71 -1.02 4.42 0 0 Z " fill="#579E3E" transform="translate(456,156)"/>
<path d="M0 0 C1.65 0 3.3 0 5 0 C6.32 2.31 7.64 4.62 9 7 C5.18315774 5.44499019 2.80804268 2.96404505 0 0 Z " fill="#AF0A0D" transform="translate(247,138)"/>
<path d="M0 0 C2.0625 0.4375 2.0625 0.4375 4 1 C4 1.66 4 2.32 4 3 C3.01 3 2.02 3 1 3 C0.67 3.99 0.34 4.98 0 6 C-0.66 6 -1.32 6 -2 6 C-1.125 1.125 -1.125 1.125 0 0 Z " fill="#C80304" transform="translate(291,447)"/>
<path d="M0 0 C0.33 0 0.66 0 1 0 C1.125 6.75 1.125 6.75 0 9 C-0.99 9 -1.98 9 -3 9 C-2.01 6.03 -1.02 3.06 0 0 Z " fill="#AF0E0B" transform="translate(316,409)"/>
<path d="M0 0 C2.475 0.99 2.475 0.99 5 2 C3.35 3.32 1.7 4.64 0 6 C-0.66 5.01 -1.32 4.02 -2 3 C-1.34 2.01 -0.68 1.02 0 0 Z " fill="#BD070A" transform="translate(258,285)"/>
<path d="M0 0 C1.65 0 3.3 0 5 0 C5 0.66 5 1.32 5 2 C5.66 2.33 6.32 2.66 7 3 C6.01 4.485 6.01 4.485 5 6 C3.35 4.02 1.7 2.04 0 0 Z " fill="#B40B0B" transform="translate(104,265)"/>
<path d="M0 0 C-2.93828597 2.50298434 -5.17902761 3.46930939 -9 4 C-8.67 3.01 -8.34 2.02 -8 1 C-5.29120665 -0.35439668 -2.99066732 -0.06501451 0 0 Z " fill="#5AA040" transform="translate(441,219)"/>
<path d="M0 0 C0.66 0.33 1.32 0.66 2 1 C2 2.32 2 3.64 2 5 C1.34 5 0.68 5 0 5 C0.33 6.32 0.66 7.64 1 9 C-1.2477975 6.94766315 -2.0022242 5.99332739 -3 3 C-2.01 3 -1.02 3 0 3 C0 2.01 0 1.02 0 0 Z " fill="#B9080B" transform="translate(70,211)"/>
<path d="M0 0 C1.32 0 2.64 0 4 0 C3.39816251 2.02045442 2.72693904 4.02111039 2 6 C1.01 6.495 1.01 6.495 0 7 C-0.38133299 5.0085944 -0.71325582 3.00720923 -1 1 C-0.67 0.67 -0.34 0.34 0 0 Z " fill="#59A240" transform="translate(469,186)"/>
<path d="M0 0 C3.3 0 6.6 0 10 0 C8.515 1.485 8.515 1.485 7 3 C4.69 2.34 2.38 1.68 0 1 C0 0.67 0 0.34 0 0 Z " fill="#CA0102" transform="translate(139,149)"/>
<path d="M0 0 C1.65 0 3.3 0 5 0 C5 0.66 5 1.32 5 2 C5.66 2.33 6.32 2.66 7 3 C6.01 4.485 6.01 4.485 5 6 C3.35 4.02 1.7 2.04 0 0 Z " fill="#B50B0B" transform="translate(256,145)"/>
<path d="M0 0 C0.99 0.33 1.98 0.66 3 1 C0.69 3.31 -1.62 5.62 -4 8 C-4.33 6.68 -4.66 5.36 -5 4 C-4.360625 3.71125 -3.72125 3.4225 -3.0625 3.125 C-0.84793921 2.17176549 -0.84793921 2.17176549 0 0 Z " fill="#5E9949" transform="translate(380,104)"/>
<path d="M0 0 C2.91517292 1.07401108 4.77810176 1.77810176 7 4 C5.02 4.33 3.04 4.66 1 5 C0.67 3.35 0.34 1.7 0 0 Z " fill="#B50A08" transform="translate(237,105)"/>
<path d="M0 0 C0.33 0 0.66 0 1 0 C1 1.65 1 3.3 1 5 C-0.65 5.33 -2.3 5.66 -4 6 C-1.125 1.125 -1.125 1.125 0 0 Z " fill="#B30B0A" transform="translate(301,436)"/>
<path d="M0 0 C5.875 3.75 5.875 3.75 7 6 C4.03 5.505 4.03 5.505 1 5 C0.67 3.35 0.34 1.7 0 0 Z " fill="#B00B09" transform="translate(255,194)"/>
<path d="M0 0 C2.97 0.495 2.97 0.495 6 1 C1.25 5 1.25 5 -1 5 C-1 4.34 -1 3.68 -1 3 C-0.34 3 0.32 3 1 3 C0.67 2.01 0.34 1.02 0 0 Z " fill="#B40B0D" transform="translate(250,290)"/>
<path d="M0 0 C0.763125 0.0825 1.52625 0.165 2.3125 0.25 C0.6625 1.9 -0.9875 3.55 -2.6875 5.25 C-3.6775 4.92 -4.6675 4.59 -5.6875 4.25 C-3.34903846 0.31153846 -3.34903846 0.31153846 0 0 Z " fill="#BB090D" transform="translate(268.6875,280.75)"/>
<path d="M0 0 C1.32 0.33 2.64 0.66 4 1 C3.67 3.31 3.34 5.62 3 8 C1.0549 5.08235 0.54723683 3.37462715 0 0 Z " fill="#B50B0B" transform="translate(304,210)"/>
<path d="M0 0 C0 3 0 3 -2 6 C-4.625 6.1875 -4.625 6.1875 -7 6 C-6.21625 5.38125 -5.4325 4.7625 -4.625 4.125 C-2.03162353 2.10141339 -2.03162353 2.10141339 0 0 Z " fill="#5C9C44" transform="translate(436,193)"/>
<path d="M0 0 C5.75 1.75 5.75 1.75 8 4 C5.625 4.625 5.625 4.625 3 5 C1 3 1 3 0 0 Z " fill="#AF0B09" transform="translate(210,167)"/>
</svg>
